REM MD5 77259d1f76bef7f99ad451629e28bac7
FILE "World Cup Golf - Professional Edition (Europe).bin" BINARY
  TRACK 01 MODE2/2352
    INDEX 01 00:00:00
  TRACK 02 AUDIO
    INDEX 00 56:58:57
    INDEX 01 57:00:57
  TRACK 03 AUDIO
    INDEX 00 59:48:06
    INDEX 01 59:50:06
REM LEADOUT 62:52:28
